<svg data-v-423bf9ae="" xmlns="http://www.w3.org/2000/svg" viewBox="0 0 774 481" class="iconLeft"><!----><!----><!----><g data-v-423bf9ae="" id="3c617b35-ca44-4246-8b3f-dab458ab7c2e" fill="white" transform="matrix(6.217615597168033,0,0,6.217615597168033,570.1794151272865,162.85296700325722)"><path d="M9.35 8.43L10.26 8.43L8.68 17.18L7.20 17.18L5.31 9.88L3.42 17.18L1.93 17.18L0.35 8.43L1.26 8.43L2.63 16.38L2.76 16.38L4.83 8.43L5.78 8.43L7.85 16.38L7.98 16.38L9.35 8.43ZM14.20 16.52L14.20 16.52Q14.76 16.52 15.29 16.45L15.29 16.45L15.29 16.45Q15.82 16.38 16.60 16.18L16.60 16.18L16.73 16.90L16.73 16.90Q16.28 17.08 15.53 17.19L15.53 17.19L15.53 17.19Q14.77 17.29 13.96 17.29L13.96 17.29L13.96 17.29Q12.92 17.29 12.43 17.00L12.43 17.00L12.43 17.00Q11.94 16.72 11.77 15.97L11.77 15.97L11.77 15.97Q11.59 15.23 11.59 13.68L11.59 13.68L11.59 13.68Q11.59 12.21 11.82 11.45L11.82 11.45L11.82 11.45Q12.04 10.70 12.61 10.38L12.61 10.38L12.61 10.38Q13.17 10.07 14.28 10.07L14.28 10.07L14.28 10.07Q15.36 10.07 15.91 10.23L15.91 10.23L15.91 10.23Q16.46 10.40 16.69 10.82L16.69 10.82L16.69 10.82Q16.91 11.24 16.91 12.07L16.91 12.07L16.91 12.07Q16.91 13.15 16.65 13.57L16.65 13.57L16.65 13.57Q16.38 14 15.53 14.13L15.53 14.13L15.53 14.13Q14.69 14.27 12.53 14.27L12.53 14.27L12.53 16.32L12.53 16.32Q13.17 16.52 14.20 16.52L14.20 16.52ZM13.75 10.91L13.75 10.91Q13.03 10.91 12.78 11.10L12.78 11.10L12.78 11.10Q12.53 11.28 12.53 11.82L12.53 11.82L12.53 13.52L14.84 13.52L14.84 13.52Q15.57 13.52 15.83 13.34L15.83 13.34L15.83 13.34Q16.09 13.16 16.09 12.63L16.09 12.63L16.09 10.91L13.75 10.91ZM24.89 13.68L24.89 13.68Q24.89 15.29 24.71 16.02L24.71 16.02L24.71 16.02Q24.53 16.76 24.02 17.02L24.02 17.02L24.02 17.02Q23.51 17.29 22.37 17.29L22.37 17.29L22.36 17.29L22.36 17.29Q21.63 17.29 21.22 17.23L21.22 17.23L21.22 17.23Q20.47 17.16 19.50 16.90L19.50 16.90L19.50 7.80L20.41 7.64L20.41 10.36L20.41 10.36Q20.71 10.14 21.20 10.05L21.20 10.05L21.20 10.05Q21.70 9.97 22.54 9.97L22.54 9.97L22.54 9.97Q23.58 9.97 24.06 10.25L24.06 10.25L24.06 10.25Q24.54 10.53 24.72 11.29L24.72 11.29L24.72 11.29Q24.89 12.05 24.89 13.68L24.89 13.68ZM23.97 16.24L23.97 10.78L21.08 10.78L21.08 10.78Q20.68 10.78 20.54 10.84L20.54 10.84L20.54 10.84Q20.41 10.91 20.41 11.12L20.41 11.12L20.41 16.48L23.28 16.48L23.28 16.48Q23.67 16.48 23.82 16.43L23.82 16.43L23.82 16.43Q23.97 16.38 23.97 16.24L23.97 16.24ZM32.65 17.18L31.63 17.18L29.29 13.43L27.05 17.18L26.05 17.18L28.81 12.66L26.17 8.43L27.19 8.43L29.41 12.00L31.54 8.43L32.54 8.43L29.90 12.78L32.65 17.18Z"></path></g><!----><g data-v-423bf9ae="" id="b5dd6e00-729f-4423-b7a3-856349e78ce0" transform="matrix(2.311111111111111,0,0,2.311111111111111,0.8222222222222513,0.6444444444444741)" stroke="none" fill="white"><path d="M120 77C67 19 72 0 0 0c32 35 63 69 95 104-32 35-63 69-95 104 72 0 67-19 120-77 52 58 47 77 119 77-31-35-63-69-95-104 32-35 64-69 95-104-72 0-67 19-119 77z"></path></g><!----></svg>