<?xml version="1.0" encoding="UTF-8" standalone="no"?> <!-- Created with Vectornator for iOS (http://vectornator.io/) --><!DOCTYPE svg PUBLIC "-//W3C//DTD SVG 1.1//EN" "http://www.w3.org/Graphics/SVG/1.1/DTD/svg11.dtd">
<svg style="fill-rule:evenodd;clip-rule:evenodd;stroke-linecap:round;stroke-linejoin:round;" xmlns:vectornator="http://vectornator.io" xmlns:xlink="http://www.w3.org/1999/xlink" xmlns="http://www.w3.org/2000/svg" xml:space="preserve" version="1.1" viewBox="0 0 774 481">
<metadata>
<vectornator:setting key="DynamicGuides" value="1"/>
<vectornator:setting key="CMYKEnabledKey" value="0"/>
<vectornator:setting key="Units" value="Points"/>
<vectornator:setting key="RulersVisible" value="1"/>
<vectornator:setting key="SnapToGuides" value="1"/>
<vectornator:setting key="GridSpacing" value="36"/>
</metadata>
<defs/>
<g id="b5dd6e00-729f-4423-b7a3-856349e78ce0" vectornator:layerName="b5dd6e00-729f-4423-b7a3-856349e78ce0">
<path d="M526.495+197.639L536.162+197.639L519.378+290.586L503.658+290.586L483.581+213.041L463.504+290.586L447.676+290.586L430.893+197.639L440.559+197.639L455.113+282.087L456.493+282.087L478.481+197.639L488.573+197.639L510.562+282.087L511.943+282.087L526.495+197.639ZM578.015+283.574L578.015+283.574C581.98+283.574+585.84+283.327+589.594+282.83L589.594+282.83L589.594+282.83C593.346+282.335+597.985+281.378+603.509+279.962L603.509+279.962L604.89+287.611L604.89+287.611C601.703+288.885+597.454+289.913+592.142+290.692L592.142+290.692L592.142+290.692C586.76+291.399+581.201+291.754+575.465+291.754L575.465+291.754L575.465+291.754C568.101+291.754+562.683+290.727+559.213+288.673L559.213+288.673L559.213+288.673C555.742+286.69+553.406+283.043+552.202+277.732L552.202+277.732L552.202+277.732C550.927+272.492+550.29+264.383+550.29+253.407L550.29+253.407L550.29+253.407C550.29+242.997+551.105+235.1+552.733+229.718L552.733+229.718L552.733+229.718C554.292+224.407+557.088+220.618+561.125+218.352L561.125+218.352L561.125+218.352C565.091+216.157+571.004+215.059+578.864+215.059L578.864+215.059L578.864+215.059C586.513+215.059+592.284+215.625+596.179+216.759L596.179+216.759L596.179+216.759C600.074+217.962+602.836+220.052+604.465+223.026L604.465+223.026L604.465+223.026C606.023+226+606.802+230.426+606.802+236.304L606.802+236.304L606.802+236.304C606.802+243.952+605.881+249.264+604.04+252.237L604.04+252.237L604.04+252.237C602.128+255.283+598.162+257.266+592.142+258.186L592.142+258.186L592.142+258.186C586.194+259.178+575.572+259.674+560.275+259.674L560.275+259.674L560.275+281.45L560.275+281.45C564.808+282.866+570.721+283.574+578.015+283.574L578.015+283.574ZM573.235+223.982L573.235+223.982C568.135+223.982+564.702+224.655+562.931+226L562.931+226L562.931+226C561.16+227.275+560.275+229.824+560.275+233.648L560.275+233.648L560.275+251.706L584.813+251.706L584.813+251.706C589.983+251.706+593.488+251.069+595.329+249.795L595.329+249.795L595.329+249.795C597.17+248.52+598.091+246.006+598.091+242.253L598.091+242.253L598.091+223.982L573.235+223.982ZM691.569+253.407L691.569+253.407C691.569+264.808+690.932+273.093+689.658+278.263L689.658+278.263L689.658+278.263C688.382+283.503+685.939+287.044+682.327+288.885L682.327+288.885L682.327+288.885C678.716+290.798+672.874+291.754+664.8+291.754L664.8+291.754L664.694+291.754L664.694+291.754C659.524+291.754+655.488+291.541+652.585+291.117L652.585+291.117L652.585+291.117C647.273+290.62+641.183+289.452+634.315+287.611L634.315+287.611L634.315+190.946L643.98+189.246L643.98+218.14L643.98+218.14C646.105+216.582+648.902+215.484+652.373+214.847L652.373+214.847L652.373+214.847C655.913+214.28+660.658+213.997+666.607+213.997L666.607+213.997L666.607+213.997C673.972+213.997+679.354+214.988+682.753+216.971L682.753+216.971L682.753+216.971C686.152+218.954+688.489+222.636+689.764+228.018L689.764+228.018L689.764+228.018C690.968+233.4+691.569+241.863+691.569+253.407L691.569+253.407ZM681.796+280.6L681.796+222.601L651.097+222.601L651.097+222.601C648.265+222.601+646.353+222.814+645.362+223.238L645.362+223.238L645.362+223.238C644.441+223.734+643.98+224.725+643.98+226.213L643.98+226.213L643.98+283.149L674.467+283.149L674.467+283.149C677.229+283.149+679.142+282.972+680.203+282.618L680.203+282.618L680.203+282.618C681.265+282.264+681.796+281.592+681.796+280.6L681.796+280.6ZM774+290.586L763.165+290.586L738.309+250.751L714.514+290.586L703.892+290.586L733.209+242.572L705.166+197.639L716.001+197.639L739.583+235.561L762.209+197.639L772.832+197.639L744.789+243.846L774+290.586Z" fill-rule="evenodd" fill="#ffffff" opacity="1"/>
<path d="M185.864+198.681C103.774+108.847+111.518+79.4181+0+79.4181C49.5636+133.628+97.5782+186.29+147.142+240.5C97.5782+294.71+49.5636+347.372+0+401.582C111.518+401.582+103.774+372.153+185.864+282.319C266.404+372.153+258.66+401.582+370.178+401.582C322.163+347.372+272.6+294.71+223.036+240.5C272.6+186.29+322.163+133.628+370.178+79.4181C258.66+79.4181+266.404+108.847+185.864+198.681Z" fill-rule="evenodd" fill="#ffffff" opacity="1"/>
</g>
</svg>
