<svg data-v-fde0c5aa="" xmlns="http://www.w3.org/2000/svg" viewBox="0 0 300 300" class="icon"><!----><defs data-v-fde0c5aa=""><!----></defs><rect data-v-fde0c5aa="" fill="transparent" x="0" y="0" width="300px" height="300px" class="logo-background-square"></rect><!----><defs data-v-fde0c5aa=""><linearGradient data-v-fde0c5aa="" gradientTransform="rotate(25)" id="923ee40e-3489-4475-b64a-d5f27e34182a" x1="0%" y1="0%" x2="100%" y2="0%"><stop data-v-fde0c5aa="" offset="0%" stop-color="#288B58" stop-opacity="1"></stop><stop data-v-fde0c5aa="" offset="100%" stop-color="#1522F1" stop-opacity="1"></stop></linearGradient></defs><g data-v-fde0c5aa="" id="34c679a4-1d03-4efb-a7f1-ec38b340c63f" fill="url(#923ee40e-3489-4475-b64a-d5f27e34182a)" stroke="none" transform="matrix(0.9205020920502092,0,0,0.9205020920502092,40,54.26778242677824)"><path d="M120 77C67 19 72 0 0 0c32 35 63 69 95 104-32 35-63 69-95 104 72 0 67-19 120-77 52 58 47 77 119 77-31-35-63-69-95-104 32-35 64-69 95-104-72 0-67 19-119 77z"></path></g><!----></svg>